<?xml version="1.0" encoding="UTF-8" standalone="no"?>
<!-- Created with Inkscape (http://www.inkscape.org/) -->

<svg
   version="1.1"
   id="svg416"
   width="445.24655"
   height="200.39842"
   viewBox="0 0 445.24655 200.39842"
   xmlns="http://www.w3.org/2000/svg"
   xmlns:svg="http://www.w3.org/2000/svg">
  <defs
     id="defs420" />
  <g
     id="g424"
     transform="matrix(1.3333333,0,0,1.3333333,0,7.6766271e-6)">
    <g
       id="g426">
      <path
         d="m 183.938,132 h 42 v 18 h -42 z"
         style="fill:#f8cecc;fill-opacity:1;fill-rule:nonzero;stroke:none"
         id="path428" />
      <g
         id="g430"
         transform="scale(1,-1)">
        <path
           d="m 183.938,-132 h 42 v -18 h -42 z"
           style="fill:none;stroke:#b85450;stroke-width:0.6;stroke-linecap:butt;stroke-linejoin:miter;stroke-miterlimit:10;stroke-dasharray:none;stroke-opacity:1"
           id="path432" />
      </g>
      <g
         id="g434"
         transform="scale(1,-1)">
        <path
           d="M 15.938,-132 H 330.113"
           style="fill:none;stroke:#000000;stroke-width:0.6;stroke-linecap:butt;stroke-linejoin:miter;stroke-miterlimit:10;stroke-dasharray:none;stroke-opacity:1"
           id="path436" />
      </g>
      <path
         d="m 333.266,132 -4.204,2.098 1.051,-2.098 -1.051,-2.102 4.204,2.102"
         style="fill:#000000;fill-opacity:1;fill-rule:nonzero;stroke:none"
         id="path438" />
      <g
         id="g440"
         transform="scale(1,-1)">
        <path
           d="m 333.266,-132 -4.204,-2.098 1.051,2.098 -1.051,2.102 z"
           style="fill:none;stroke:#000000;stroke-width:0.6;stroke-linecap:butt;stroke-linejoin:miter;stroke-miterlimit:10;stroke-dasharray:none;stroke-opacity:1"
           id="path442" />
      </g>
      <g
         id="g444"
         transform="scale(1,-1)">
        <path
           d="M 27.938,-144 V -3.82"
           style="fill:none;stroke:#000000;stroke-width:0.6;stroke-linecap:butt;stroke-linejoin:miter;stroke-miterlimit:10;stroke-dasharray:none;stroke-opacity:1"
           id="path446" />
      </g>
      <path
         d="M 27.938,0.672 30.035,4.871 27.938,3.82 25.836,4.871 27.938,0.672"
         style="fill:#000000;fill-opacity:1;fill-rule:nonzero;stroke:none"
         id="path448" />
      <g
         id="g450"
         transform="scale(1,-1)">
        <path
           d="m 27.938,-0.672 2.097,-4.199 -2.097,1.051 -2.102,-1.051 z"
           style="fill:none;stroke:#000000;stroke-width:0.6;stroke-linecap:butt;stroke-linejoin:miter;stroke-miterlimit:10;stroke-dasharray:none;stroke-opacity:1"
           id="path452" />
      </g>
      <path
         d="m 318.383,135.363 v 0.567 h -1.594 v 4.168 h -0.652 v -4.168 h -1.594 v -0.567 z m 0.512,1.301 h 0.585 v 3.434 h -0.585 z m 0,-1.301 h 0.585 v 0.66 h -0.585 z m 1.46,1.285 h 0.575 v 0.489 c 0.136,-0.168 0.261,-0.293 0.375,-0.371 0.187,-0.129 0.406,-0.196 0.648,-0.196 0.277,0 0.496,0.067 0.664,0.203 0.094,0.079 0.18,0.192 0.258,0.34 0.129,-0.183 0.281,-0.32 0.453,-0.41 0.176,-0.09 0.371,-0.133 0.586,-0.133 0.465,0 0.781,0.168 0.949,0.504 0.09,0.176 0.137,0.422 0.137,0.727 v 2.297 h -0.605 v -2.399 c 0,-0.226 -0.055,-0.387 -0.172,-0.472 -0.114,-0.086 -0.254,-0.129 -0.418,-0.129 -0.231,0 -0.426,0.074 -0.59,0.23 -0.164,0.152 -0.246,0.406 -0.246,0.762 v 2.008 h -0.59 v -2.25 c 0,-0.235 -0.027,-0.407 -0.082,-0.516 -0.09,-0.16 -0.254,-0.238 -0.496,-0.238 -0.219,0 -0.418,0.082 -0.598,0.254 -0.18,0.168 -0.269,0.476 -0.269,0.922 v 1.828 h -0.579 z m 7.645,0.094 c 0.23,0.117 0.402,0.262 0.523,0.446 0.118,0.175 0.196,0.378 0.235,0.609 0.031,0.16 0.051,0.414 0.051,0.762 h -2.532 c 0.012,0.351 0.094,0.632 0.246,0.843 0.157,0.211 0.399,0.317 0.723,0.317 0.301,0 0.543,-0.102 0.723,-0.301 0.101,-0.113 0.176,-0.25 0.219,-0.402 h 0.57 c -0.016,0.129 -0.067,0.269 -0.149,0.425 -0.086,0.157 -0.179,0.282 -0.285,0.379 -0.176,0.172 -0.394,0.289 -0.652,0.348 -0.145,0.035 -0.301,0.055 -0.477,0.055 -0.429,0 -0.793,-0.157 -1.09,-0.473 -0.3,-0.309 -0.449,-0.75 -0.449,-1.312 0,-0.551 0.149,-1.004 0.449,-1.352 0.301,-0.344 0.696,-0.516 1.18,-0.516 0.246,0 0.485,0.055 0.715,0.172 m 0.211,1.356 c -0.023,-0.25 -0.078,-0.453 -0.164,-0.602 -0.16,-0.281 -0.426,-0.422 -0.797,-0.422 -0.266,0 -0.488,0.098 -0.668,0.289 -0.184,0.196 -0.277,0.438 -0.289,0.735 h 1.918"
         style="fill:#000000;fill-opacity:1;fill-rule:nonzero;stroke:none"
         id="path454" />
      <path
         d="m 0,3.363 h 2.129 c 0.422,0 0.762,0.121 1.019,0.36 0.258,0.234 0.387,0.57 0.387,1 0,0.367 -0.113,0.691 -0.344,0.965 -0.23,0.273 -0.586,0.41 -1.062,0.41 H 0.641 v 2 L 0,8.098 Z M 2.5,4.016 C 2.359,3.949 2.164,3.914 1.918,3.914 H 0.641 v 1.641 h 1.277 c 0.285,0 0.52,-0.059 0.699,-0.184 C 2.797,5.25 2.887,5.035 2.887,4.727 2.887,4.375 2.758,4.141 2.5,4.016 M 4.273,4.648 H 4.824 V 5.242 C 4.871,5.129 4.98,4.988 5.156,4.82 5.336,4.652 5.535,4.57 5.766,4.57 L 5.82,4.574 5.953,4.586 V 5.199 L 5.859,5.188 5.762,5.184 C 5.473,5.184 5.246,5.277 5.09,5.465 4.934,5.652 4.855,5.867 4.855,6.113 V 8.098 H 4.273 Z m 2.18,0.016 h 0.59 v 3.434 h -0.59 z m 0,-1.301 h 0.59 v 0.66 h -0.59 z m 3.621,3.926 c 0.145,-0.293 0.215,-0.617 0.215,-0.973 0,-0.32 -0.051,-0.582 -0.152,-0.785 C 9.973,5.211 9.691,5.055 9.289,5.055 8.938,5.055 8.68,5.188 8.516,5.461 8.355,5.73 8.273,6.059 8.273,6.438 c 0,0.371 0.082,0.675 0.243,0.921 0.164,0.243 0.418,0.368 0.769,0.368 0.383,0 0.649,-0.149 0.789,-0.438 m 0.36,-2.297 c 0.308,0.297 0.461,0.735 0.461,1.309 0,0.554 -0.133,1.015 -0.407,1.379 C 10.219,8.043 9.801,8.227 9.23,8.227 8.754,8.227 8.379,8.062 8.098,7.742 7.82,7.422 7.68,6.988 7.68,6.449 7.68,5.867 7.824,5.406 8.121,5.062 8.414,4.719 8.809,4.547 9.309,4.547 c 0.441,0 0.82,0.148 1.125,0.445 m 1.164,-0.344 h 0.55 V 5.242 C 12.191,5.129 12.305,4.988 12.48,4.82 12.656,4.652 12.859,4.57 13.09,4.57 l 0.055,0.004 0.128,0.012 V 5.199 L 13.18,5.188 13.086,5.184 c -0.293,0 -0.52,0.093 -0.676,0.281 -0.156,0.187 -0.234,0.402 -0.234,0.648 v 1.985 h -0.578 z m 2.175,0.016 h 0.59 v 3.434 h -0.59 z m 0,-1.301 h 0.59 v 0.66 h -0.59 z m 1.579,0.321 h 0.586 v 0.964 h 0.55 v 0.473 h -0.55 v 2.254 c 0,0.117 0.042,0.199 0.124,0.242 0.043,0.024 0.122,0.035 0.223,0.035 l 0.094,-0.004 0.109,-0.007 v 0.457 l -0.207,0.043 -0.23,0.011 C 15.777,8.152 15.594,8.086 15.496,7.945 15.402,7.809 15.352,7.629 15.352,7.406 V 5.121 H 14.887 V 4.648 h 0.465 z m 3.871,0.964 h 0.64 C 19.781,4.867 19.598,5.375 19.316,6.16 19.105,6.754 18.93,7.238 18.789,7.613 18.453,8.492 18.219,9.031 18.078,9.223 17.941,9.418 17.707,9.516 17.371,9.516 L 17.184,9.504 17.02,9.469 V 8.941 c 0.101,0.028 0.171,0.043 0.218,0.051 L 17.359,9 c 0.106,0 0.184,-0.016 0.235,-0.051 L 17.723,8.816 C 17.734,8.801 17.77,8.711 17.84,8.555 17.906,8.395 17.953,8.277 17.984,8.199 L 16.707,4.648 h 0.656 l 0.926,2.809 0.934,-2.809"
         style="fill:#000000;fill-opacity:1;fill-rule:nonzero;stroke:none"
         id="path456" />
      <path
         d="m 39.938,108 h 66 v 12 h -66 z"
         style="fill:#ffffff;fill-opacity:1;fill-rule:nonzero;stroke:none"
         id="path458" />
      <g
         id="g460"
         transform="scale(1,-1)">
        <path
           d="m 39.938,-108 h 66 v -12 h -66 z"
           style="fill:none;stroke:#000000;stroke-width:0.6;stroke-linecap:butt;stroke-linejoin:miter;stroke-miterlimit:10;stroke-dasharray:none;stroke-opacity:1"
           id="path462" />
      </g>
      <path
         d="m 71.34,111.363 h 0.64 v 4.172 h 2.399 v 0.563 H 71.34 v -4.735"
         style="fill:#000000;fill-opacity:1;fill-rule:nonzero;stroke:none"
         id="path464" />
      <g
         id="g466"
         transform="scale(1,-1)">
        <path
           d="m 39.938,-83.996 v -20.18"
           style="fill:none;stroke:#63b0eb;stroke-width:0.6;stroke-linecap:butt;stroke-linejoin:miter;stroke-miterlimit:10;stroke-dasharray:none;stroke-opacity:1"
           id="path468" />
      </g>
      <path
         d="m 39.938,107.328 -2.102,-4.203 2.102,1.051 2.097,-1.051 -2.097,4.203"
         style="fill:#63b0eb;fill-opacity:1;fill-rule:nonzero;stroke:none"
         id="path470" />
      <g
         id="g472"
         transform="scale(1,-1)">
        <path
           d="m 39.938,-107.328 -2.102,4.203 2.102,-1.051 2.097,1.051 z"
           style="fill:none;stroke:#63b0eb;stroke-width:0.6;stroke-linecap:butt;stroke-linejoin:miter;stroke-miterlimit:10;stroke-dasharray:none;stroke-opacity:1"
           id="path474" />
      </g>
      <path
         d="m 93.938,102 -12,12 -12,-12 12,-12 12,12"
         style="fill:#dae8fc;fill-opacity:1;fill-rule:nonzero;stroke:none"
         id="path476" />
      <g
         id="g478"
         transform="scale(1,-1)">
        <path
           d="m 93.938,-102 -12,-12 -12,12 12,12 z"
           style="fill:none;stroke:#6c8ebf;stroke-width:0.6;stroke-linecap:butt;stroke-linejoin:miter;stroke-miterlimit:10;stroke-dasharray:none;stroke-opacity:1"
           id="path480" />
      </g>
      <path
         d="m 75.492,96.195 h 0.582 v 3.793 h 2.184 v 0.512 h -2.766 z m 5.223,3.567 c 0.129,-0.266 0.195,-0.559 0.195,-0.883 0,-0.293 -0.047,-0.531 -0.14,-0.715 -0.149,-0.289 -0.407,-0.434 -0.766,-0.434 -0.324,0 -0.559,0.122 -0.703,0.368 -0.149,0.246 -0.223,0.543 -0.223,0.894 0,0.332 0.074,0.61 0.223,0.832 0.144,0.223 0.375,0.336 0.695,0.336 0.348,0 0.59,-0.133 0.719,-0.398 m 0.328,-2.09 c 0.277,0.273 0.418,0.668 0.418,1.191 0,0.508 -0.121,0.926 -0.367,1.254 -0.25,0.332 -0.629,0.496 -1.149,0.496 -0.433,0 -0.773,-0.144 -1.027,-0.437 -0.254,-0.293 -0.383,-0.684 -0.383,-1.176 0,-0.527 0.137,-0.949 0.403,-1.262 0.269,-0.312 0.628,-0.468 1.078,-0.468 0.406,0 0.746,0.136 1.027,0.402 m 3.109,-0.145 c 0.219,0.172 0.356,0.469 0.399,0.891 h -0.512 c -0.031,-0.195 -0.101,-0.356 -0.215,-0.484 -0.109,-0.129 -0.289,-0.192 -0.535,-0.192 -0.336,0 -0.574,0.164 -0.723,0.492 -0.093,0.215 -0.14,0.477 -0.14,0.789 0,0.313 0.066,0.579 0.203,0.793 0.133,0.215 0.34,0.321 0.625,0.321 0.219,0 0.391,-0.067 0.519,-0.199 0.129,-0.133 0.215,-0.317 0.266,-0.551 h 0.512 c -0.059,0.418 -0.203,0.722 -0.438,0.914 -0.234,0.191 -0.535,0.289 -0.898,0.289 -0.414,0 -0.738,-0.149 -0.985,-0.449 -0.242,-0.301 -0.367,-0.676 -0.367,-1.125 0,-0.547 0.137,-0.977 0.403,-1.286 0.265,-0.308 0.609,-0.46 1.023,-0.46 0.352,0 0.641,0.085 0.863,0.257 m 0.914,-1.332 h 0.508 v 2.5 l 1.352,-1.332 h 0.676 l -1.204,1.172 1.27,1.965 h -0.672 l -0.98,-1.582 -0.442,0.402 v 1.18 h -0.508 v -4.305"
         style="fill:#000000;fill-opacity:1;fill-rule:nonzero;stroke:none"
         id="path482" />
      <path
         d="m 81.629,105.367 c 0.273,0 0.488,-0.055 0.648,-0.164 0.161,-0.109 0.239,-0.308 0.239,-0.594 0,-0.304 -0.114,-0.511 -0.332,-0.625 -0.122,-0.058 -0.282,-0.089 -0.481,-0.089 h -1.422 v 1.472 z m -1.934,-1.972 h 1.996 c 0.329,0 0.598,0.046 0.809,0.144 0.406,0.184 0.605,0.523 0.605,1.016 0,0.257 -0.05,0.468 -0.156,0.633 -0.109,0.164 -0.258,0.296 -0.449,0.394 0.168,0.07 0.297,0.16 0.379,0.27 0.086,0.113 0.133,0.293 0.144,0.543 l 0.02,0.578 c 0.008,0.164 0.019,0.285 0.043,0.363 0.031,0.141 0.098,0.226 0.187,0.266 v 0.097 h -0.714 l -0.047,-0.144 c -0.016,-0.059 -0.024,-0.172 -0.032,-0.34 L 82.445,106.5 c -0.011,-0.281 -0.117,-0.473 -0.312,-0.566 -0.113,-0.055 -0.285,-0.082 -0.528,-0.082 h -1.324 v 1.847 h -0.586 v -4.304"
         style="fill:#000000;fill-opacity:1;fill-rule:nonzero;stroke:none"
         id="path484" />
      <g
         id="g486"
         transform="scale(1,-1)">
        <path
           d="M 105.938,-48 V -68.176"
           style="fill:none;stroke:#63b0eb;stroke-width:0.6;stroke-linecap:butt;stroke-linejoin:miter;stroke-miterlimit:10;stroke-dasharray:none;stroke-opacity:1"
           id="path488" />
      </g>
      <path
         d="m 105.938,71.328 -2.102,-4.203 2.102,1.051 2.097,-1.051 -2.097,4.203"
         style="fill:#63b0eb;fill-opacity:1;fill-rule:nonzero;stroke:none"
         id="path490" />
      <g
         id="g492"
         transform="scale(1,-1)">
        <path
           d="m 105.938,-71.328 -2.102,4.203 2.102,-1.051 2.097,1.051 z"
           style="fill:none;stroke:#63b0eb;stroke-width:0.6;stroke-linecap:butt;stroke-linejoin:miter;stroke-miterlimit:10;stroke-dasharray:none;stroke-opacity:1"
           id="path494" />
      </g>
      <path
         d="m 105.938,71.996 h 54 v 12 h -54 z"
         style="fill:#ffffff;fill-opacity:1;fill-rule:nonzero;stroke:none"
         id="path496" />
      <g
         id="g498"
         transform="scale(1,-1)">
        <path
           d="m 105.938,-72 h 54 v -12 h -54 z"
           style="fill:none;stroke:#000000;stroke-width:0.6;stroke-linecap:butt;stroke-linejoin:miter;stroke-miterlimit:10;stroke-dasharray:none;stroke-opacity:1"
           id="path500" />
      </g>
      <path
         d="m 130.121,75.363 h 0.918 l 1.359,4.004 1.352,-4.004 h 0.91 v 4.735 h -0.609 v -2.793 c 0,-0.098 0.004,-0.258 0.008,-0.481 0.003,-0.222 0.003,-0.461 0.003,-0.719 l -1.347,3.993 h -0.637 l -1.359,-3.993 v 0.145 c 0,0.117 0.004,0.293 0.008,0.531 0.003,0.239 0.007,0.41 0.007,0.524 v 2.793 h -0.613 v -4.735"
         style="fill:#000000;fill-opacity:1;fill-rule:nonzero;stroke:none"
         id="path502" />
      <g
         id="g504"
         transform="scale(1,-1)">
        <path
           d="M 159.938,-12 V -32.176"
           style="fill:none;stroke:#63b0eb;stroke-width:0.6;stroke-linecap:butt;stroke-linejoin:miter;stroke-miterlimit:10;stroke-dasharray:none;stroke-opacity:1"
           id="path506" />
      </g>
      <path
         d="m 159.938,35.328 -2.102,-4.203 2.102,1.051 2.097,-1.051 -2.097,4.203"
         style="fill:#63b0eb;fill-opacity:1;fill-rule:nonzero;stroke:none"
         id="path508" />
      <g
         id="g510"
         transform="scale(1,-1)">
        <path
           d="m 159.938,-35.328 -2.102,4.203 2.102,-1.051 2.097,1.051 z"
           style="fill:none;stroke:#63b0eb;stroke-width:0.6;stroke-linecap:butt;stroke-linejoin:miter;stroke-miterlimit:10;stroke-dasharray:none;stroke-opacity:1"
           id="path512" />
      </g>
      <path
         d="m 159.938,36 h 24 v 12 h -24 z"
         style="fill:#ffffff;fill-opacity:1;fill-rule:nonzero;stroke:none"
         id="path514" />
      <g
         id="g516"
         transform="scale(1,-1)">
        <path
           d="m 159.938,-36 h 24 v -12 h -24 z"
           style="fill:none;stroke:#000000;stroke-width:0.6;stroke-linecap:butt;stroke-linejoin:miter;stroke-miterlimit:10;stroke-dasharray:none;stroke-opacity:1"
           id="path518" />
      </g>
      <path
         d="m 169.754,39.363 h 0.648 v 1.957 h 2.461 v -1.957 h 0.649 v 4.735 h -0.649 v -2.211 h -2.461 v 2.211 h -0.648 v -4.735"
         style="fill:#000000;fill-opacity:1;fill-rule:nonzero;stroke:none"
         id="path520" />
      <path
         d="m 195.938,24 -12,12 -12,-12 12,-12 12,12"
         style="fill:#dae8fc;fill-opacity:1;fill-rule:nonzero;stroke:none"
         id="path522" />
      <g
         id="g524"
         transform="scale(1,-1)">
        <path
           d="m 195.938,-24 -12,-12 -12,12 12,12 z"
           style="fill:none;stroke:#6c8ebf;stroke-width:0.6;stroke-linecap:butt;stroke-linejoin:miter;stroke-miterlimit:10;stroke-dasharray:none;stroke-opacity:1"
           id="path526" />
      </g>
      <path
         d="m 177.492,18.195 h 0.582 v 3.789 h 2.184 V 22.5 h -2.766 z m 5.223,3.567 c 0.129,-0.266 0.195,-0.559 0.195,-0.883 0,-0.293 -0.047,-0.531 -0.14,-0.715 -0.149,-0.289 -0.407,-0.434 -0.766,-0.434 -0.324,0 -0.559,0.122 -0.703,0.368 -0.149,0.246 -0.223,0.543 -0.223,0.89 0,0.336 0.074,0.614 0.223,0.836 0.144,0.223 0.379,0.336 0.695,0.336 0.352,0 0.59,-0.133 0.719,-0.398 m 0.328,-2.09 c 0.277,0.273 0.418,0.668 0.418,1.191 0,0.508 -0.121,0.926 -0.367,1.254 -0.246,0.332 -0.629,0.496 -1.149,0.496 -0.429,0 -0.773,-0.144 -1.027,-0.437 -0.254,-0.293 -0.383,-0.684 -0.383,-1.176 0,-0.527 0.137,-0.949 0.403,-1.262 0.269,-0.312 0.624,-0.468 1.078,-0.468 0.406,0 0.746,0.136 1.027,0.402 m 3.109,-0.145 c 0.219,0.172 0.356,0.469 0.399,0.887 h -0.512 c -0.031,-0.191 -0.101,-0.352 -0.215,-0.48 -0.109,-0.129 -0.289,-0.192 -0.535,-0.192 -0.336,0 -0.574,0.164 -0.723,0.492 -0.093,0.211 -0.136,0.477 -0.136,0.789 0,0.313 0.062,0.579 0.199,0.793 0.133,0.215 0.34,0.321 0.625,0.321 0.219,0 0.391,-0.067 0.519,-0.199 0.129,-0.133 0.215,-0.317 0.266,-0.551 h 0.512 c -0.059,0.418 -0.203,0.722 -0.438,0.914 -0.234,0.191 -0.535,0.289 -0.898,0.289 -0.41,0 -0.738,-0.149 -0.985,-0.449 -0.242,-0.301 -0.367,-0.676 -0.367,-1.125 0,-0.551 0.137,-0.981 0.403,-1.286 0.269,-0.308 0.609,-0.46 1.023,-0.46 0.352,0 0.641,0.085 0.863,0.257 m 0.914,-1.332 h 0.508 v 2.5 l 1.356,-1.336 h 0.672 l -1.204,1.176 1.27,1.965 h -0.672 l -0.98,-1.582 -0.442,0.402 v 1.18 h -0.508 v -4.305"
         style="fill:#000000;fill-opacity:1;fill-rule:nonzero;stroke:none"
         id="path528" />
      <path
         d="m 183.629,27.367 c 0.273,0 0.488,-0.055 0.648,-0.164 0.161,-0.109 0.239,-0.308 0.239,-0.594 0,-0.304 -0.114,-0.511 -0.332,-0.625 -0.122,-0.058 -0.282,-0.089 -0.481,-0.089 h -1.422 v 1.472 z m -1.934,-1.972 h 1.996 c 0.329,0 0.598,0.046 0.809,0.144 0.406,0.184 0.605,0.523 0.605,1.016 0,0.257 -0.05,0.468 -0.156,0.633 -0.109,0.164 -0.258,0.296 -0.449,0.394 0.168,0.07 0.297,0.16 0.379,0.27 0.086,0.113 0.137,0.293 0.144,0.543 l 0.02,0.578 c 0.008,0.164 0.019,0.285 0.043,0.367 0.031,0.137 0.098,0.222 0.187,0.262 v 0.097 h -0.714 l -0.047,-0.144 c -0.016,-0.059 -0.024,-0.172 -0.032,-0.34 l -0.035,-0.719 c -0.011,-0.277 -0.117,-0.469 -0.312,-0.562 -0.113,-0.055 -0.285,-0.082 -0.528,-0.082 h -1.324 v 1.847 h -0.586 v -4.304"
         style="fill:#000000;fill-opacity:1;fill-rule:nonzero;stroke:none"
         id="path530" />
      <g
         id="g532"
         transform="scale(1,-1)">
        <path
           d="m 171.938,-36 24,24"
           style="fill:none;stroke:#b85450;stroke-width:0.6;stroke-linecap:butt;stroke-linejoin:miter;stroke-miterlimit:10;stroke-dasharray:none;stroke-opacity:1"
           id="path534" />
      </g>
      <path
         d="m 183.938,71.996 h 42 v 12 h -42 z"
         style="fill:#ffffff;fill-opacity:1;fill-rule:nonzero;stroke:none"
         id="path536" />
      <g
         id="g538"
         transform="scale(1,-1)">
        <path
           d="m 183.938,-72 h 42 v -12 h -42 z"
           style="fill:none;stroke:#000000;stroke-width:0.6;stroke-linecap:butt;stroke-linejoin:miter;stroke-miterlimit:10;stroke-dasharray:none;stroke-opacity:1"
           id="path540" />
      </g>
      <path
         d="m 202.121,75.363 h 0.918 l 1.359,4.004 1.356,-4.004 h 0.906 v 4.735 h -0.609 v -2.793 c 0,-0.098 0.004,-0.258 0.008,-0.481 0.003,-0.222 0.003,-0.461 0.003,-0.719 l -1.347,3.993 h -0.637 l -1.359,-3.993 v 0.145 c 0,0.117 0.004,0.293 0.008,0.531 0.003,0.239 0.007,0.41 0.007,0.524 v 2.793 h -0.613 v -4.735"
         style="fill:#000000;fill-opacity:1;fill-rule:nonzero;stroke:none"
         id="path542" />
      <g
         id="g544"
         transform="scale(1,-1)">
        <path
           d="m 225.938,-72 v 20.18"
           style="fill:none;stroke:#63b0eb;stroke-width:0.6;stroke-linecap:butt;stroke-linejoin:miter;stroke-miterlimit:10;stroke-dasharray:none;stroke-opacity:1"
           id="path546" />
      </g>
      <path
         d="m 225.938,48.672 2.097,4.199 -2.097,-1.051 -2.102,1.051 2.102,-4.199"
         style="fill:#63b0eb;fill-opacity:1;fill-rule:nonzero;stroke:none"
         id="path548" />
      <g
         id="g550"
         transform="scale(1,-1)">
        <path
           d="m 225.938,-48.672 2.097,-4.199 -2.097,1.051 -2.102,-1.051 z"
           style="fill:none;stroke:#63b0eb;stroke-width:0.6;stroke-linecap:butt;stroke-linejoin:miter;stroke-miterlimit:10;stroke-dasharray:none;stroke-opacity:1"
           id="path552" />
      </g>
      <path
         d="m 225.938,108 h 30 v 12 h -30 z"
         style="fill:#ffffff;fill-opacity:1;fill-rule:nonzero;stroke:none"
         id="path554" />
      <g
         id="g556"
         transform="scale(1,-1)">
        <path
           d="m 225.938,-108 h 30 v -12 h -30 z"
           style="fill:none;stroke:#000000;stroke-width:0.6;stroke-linecap:butt;stroke-linejoin:miter;stroke-miterlimit:10;stroke-dasharray:none;stroke-opacity:1"
           id="path558" />
      </g>
      <path
         d="m 239.34,111.363 h 0.64 v 4.172 h 2.399 v 0.563 h -3.039 v -4.735"
         style="fill:#000000;fill-opacity:1;fill-rule:nonzero;stroke:none"
         id="path560" />
      <path
         d="m 267.938,24 -12,12 -12,-12 12,-12 12,12"
         style="fill:#dae8fc;fill-opacity:1;fill-rule:nonzero;stroke:none"
         id="path562" />
      <g
         id="g564"
         transform="scale(1,-1)">
        <path
           d="m 267.938,-24 -12,-12 -12,12 12,12 z"
           style="fill:none;stroke:#6c8ebf;stroke-width:0.6;stroke-linecap:butt;stroke-linejoin:miter;stroke-miterlimit:10;stroke-dasharray:none;stroke-opacity:1"
           id="path566" />
      </g>
      <path
         d="m 248.938,17.164 h 0.64 v 4.172 h 2.399 v 0.562 h -3.039 z m 5.75,3.926 c 0.144,-0.293 0.214,-0.617 0.214,-0.973 0,-0.324 -0.05,-0.586 -0.156,-0.785 -0.16,-0.32 -0.441,-0.477 -0.844,-0.477 -0.351,0 -0.613,0.133 -0.773,0.407 -0.16,0.269 -0.242,0.593 -0.242,0.976 0,0.367 0.082,0.676 0.242,0.918 0.16,0.246 0.418,0.367 0.766,0.367 0.386,0 0.652,-0.144 0.793,-0.433 m 0.359,-2.297 c 0.308,0.297 0.461,0.73 0.461,1.309 0,0.554 -0.137,1.015 -0.406,1.378 -0.27,0.364 -0.692,0.543 -1.258,0.543 -0.477,0 -0.856,-0.16 -1.133,-0.48 -0.277,-0.32 -0.418,-0.754 -0.418,-1.293 0,-0.582 0.145,-1.043 0.441,-1.387 0.293,-0.343 0.688,-0.515 1.184,-0.515 0.445,0 0.82,0.148 1.129,0.445 m 3.426,-0.164 c 0.246,0.191 0.39,0.516 0.441,0.98 h -0.566 c -0.036,-0.214 -0.114,-0.39 -0.235,-0.531 -0.125,-0.14 -0.316,-0.211 -0.59,-0.211 -0.371,0 -0.632,0.18 -0.793,0.539 -0.101,0.235 -0.156,0.524 -0.156,0.867 0,0.348 0.074,0.637 0.223,0.875 0.144,0.239 0.375,0.356 0.687,0.356 0.243,0 0.434,-0.074 0.575,-0.223 0.136,-0.144 0.238,-0.347 0.289,-0.601 h 0.566 c -0.066,0.457 -0.226,0.789 -0.484,1.004 -0.258,0.211 -0.586,0.316 -0.992,0.316 -0.45,0 -0.809,-0.168 -1.079,-0.496 -0.265,-0.328 -0.402,-0.742 -0.402,-1.234 0,-0.606 0.148,-1.079 0.441,-1.415 0.293,-0.339 0.668,-0.507 1.125,-0.507 0.391,0 0.707,0.093 0.95,0.281 m 1.007,-1.465 h 0.559 v 2.75 l 1.484,-1.465 h 0.747 l -1.325,1.289 1.399,2.16 h -0.742 l -1.079,-1.738 -0.484,0.445 v 1.293 h -0.559 v -4.734"
         style="fill:#000000;fill-opacity:1;fill-rule:nonzero;stroke:none"
         id="path568" />
      <path
         d="m 255.656,27.133 c 0.305,0 0.539,-0.059 0.715,-0.18 0.176,-0.121 0.266,-0.336 0.266,-0.648 0,-0.34 -0.125,-0.571 -0.367,-0.692 -0.133,-0.066 -0.309,-0.097 -0.528,-0.097 h -1.566 v 1.617 z m -2.121,-2.168 h 2.192 c 0.363,0 0.66,0.055 0.89,0.156 0.445,0.203 0.668,0.578 0.668,1.121 0,0.281 -0.058,0.516 -0.176,0.696 -0.117,0.179 -0.281,0.324 -0.492,0.433 0.188,0.078 0.324,0.176 0.418,0.297 0.094,0.121 0.149,0.32 0.156,0.598 l 0.024,0.632 c 0.008,0.18 0.019,0.317 0.047,0.407 0.039,0.148 0.105,0.246 0.207,0.289 v 0.105 h -0.789 l -0.051,-0.16 c -0.016,-0.062 -0.024,-0.187 -0.031,-0.371 l -0.039,-0.789 c -0.016,-0.309 -0.129,-0.52 -0.344,-0.625 -0.125,-0.055 -0.317,-0.086 -0.578,-0.086 h -1.461 v 2.031 h -0.641 v -4.734"
         style="fill:#000000;fill-opacity:1;fill-rule:nonzero;stroke:none"
         id="path570" />
      <path
         d="m 255.938,36 h 36 v 12 h -36 z"
         style="fill:#ffffff;fill-opacity:1;fill-rule:nonzero;stroke:none"
         id="path572" />
      <g
         id="g574"
         transform="scale(1,-1)">
        <path
           d="m 255.938,-36 h 36 v -12 h -36 z"
           style="fill:none;stroke:#000000;stroke-width:0.6;stroke-linecap:butt;stroke-linejoin:miter;stroke-miterlimit:10;stroke-dasharray:none;stroke-opacity:1"
           id="path576" />
      </g>
      <path
         d="m 271.754,39.363 h 0.648 v 1.957 h 2.461 v -1.957 h 0.649 v 4.735 h -0.649 v -2.211 h -2.461 v 2.211 h -0.648 v -4.735"
         style="fill:#000000;fill-opacity:1;fill-rule:nonzero;stroke:none"
         id="path578" />
      <g
         id="g580"
         transform="scale(1,-1)">
        <path
           d="m 195.938,-24 h 48"
           style="fill:none;stroke:#6c8ebf;stroke-width:0.6;stroke-linecap:butt;stroke-linejoin:miter;stroke-miterlimit:10;stroke-dasharray:1.8, 1.8;stroke-dashoffset:0;stroke-opacity:1"
           id="path582" />
      </g>
      <path
         d="m 301.75,115.457 h 0.609 v 0.641 h -0.609 z m 1.656,0 h 0.614 v 0.641 h -0.614 z m 1.66,0 h 0.614 v 0.641 h -0.614 z"
         style="fill:#000000;fill-opacity:1;fill-rule:nonzero;stroke:none"
         id="path584" />
      <path
         d="m 301.75,43.461 h 0.609 v 0.637 h -0.609 z m 1.656,0 h 0.614 v 0.637 h -0.614 z m 1.66,0 h 0.614 v 0.637 h -0.614 z"
         style="fill:#000000;fill-opacity:1;fill-rule:nonzero;stroke:none"
         id="path586" />
      <g
         id="g588"
         transform="scale(1,-1)">
        <path
           d="M 159.938,-74.996 V -45 m -54,-66 v 30.004 m 78,35.996 v -29.996 m 42,-36.004 v 30.004 m 30,-33.004 v 69"
           style="fill:none;stroke:#000000;stroke-width:0.6;stroke-linecap:butt;stroke-linejoin:miter;stroke-miterlimit:10;stroke-dasharray:1.8, 1.8;stroke-dashoffset:0;stroke-opacity:1"
           id="path590" />
      </g>
      <path
         d="m 195.531,135.195 h 1.938 c 0.379,0 0.687,0.11 0.922,0.325 0.238,0.214 0.351,0.519 0.351,0.91 0,0.336 -0.101,0.629 -0.312,0.875 -0.207,0.25 -0.532,0.375 -0.961,0.375 h -1.356 v 1.82 h -0.582 z m 2.274,0.594 c -0.129,-0.062 -0.309,-0.094 -0.532,-0.094 h -1.16 v 1.493 h 1.16 c 0.262,0 0.473,-0.055 0.637,-0.168 0.164,-0.11 0.246,-0.309 0.246,-0.59 0,-0.313 -0.117,-0.528 -0.351,-0.641 m 1.605,0.574 h 0.504 v 0.539 c 0.039,-0.105 0.141,-0.234 0.301,-0.382 0.16,-0.153 0.344,-0.227 0.555,-0.227 h 0.05 l 0.118,0.012 v 0.558 l -0.086,-0.011 -0.086,-0.004 c -0.266,0 -0.469,0.086 -0.614,0.257 -0.14,0.172 -0.214,0.368 -0.214,0.59 v 1.805 h -0.528 z m 1.985,0.012 h 0.535 v 3.125 h -0.535 z m 0,-1.18 h 0.535 v 0.598 h -0.535 z m 3.293,3.567 c 0.132,-0.266 0.199,-0.559 0.199,-0.883 0,-0.293 -0.047,-0.531 -0.145,-0.715 -0.144,-0.289 -0.402,-0.434 -0.765,-0.434 -0.321,0 -0.555,0.122 -0.704,0.368 -0.144,0.246 -0.218,0.543 -0.218,0.894 0,0.332 0.074,0.61 0.218,0.832 0.149,0.223 0.379,0.336 0.7,0.336 0.347,0 0.586,-0.133 0.715,-0.398 m 0.328,-2.09 c 0.281,0.273 0.422,0.668 0.422,1.191 0,0.508 -0.126,0.926 -0.372,1.254 -0.246,0.332 -0.628,0.496 -1.144,0.496 -0.434,0 -0.777,-0.144 -1.027,-0.437 -0.254,-0.293 -0.383,-0.684 -0.383,-1.176 0,-0.527 0.133,-0.949 0.402,-1.262 0.266,-0.312 0.625,-0.468 1.078,-0.468 0.403,0 0.746,0.136 1.024,0.402 m 1.054,-0.309 h 0.5 v 0.539 c 0.039,-0.105 0.141,-0.234 0.301,-0.382 0.16,-0.153 0.344,-0.227 0.555,-0.227 h 0.051 l 0.117,0.012 v 0.558 l -0.086,-0.011 -0.086,-0.004 c -0.266,0 -0.469,0.086 -0.613,0.257 -0.141,0.172 -0.211,0.368 -0.211,0.59 v 1.805 h -0.528 z m 1.981,0.012 h 0.535 v 3.125 h -0.535 z m 0,-1.18 h 0.535 v 0.598 h -0.535 z m 1.437,0.289 h 0.532 v 0.879 h 0.5 v 0.43 h -0.5 v 2.047 c 0,0.109 0.039,0.183 0.113,0.219 0.039,0.023 0.109,0.031 0.203,0.031 h 0.082 l 0.102,-0.008 v 0.418 l -0.188,0.039 -0.211,0.008 c -0.246,0 -0.414,-0.059 -0.504,-0.188 -0.086,-0.125 -0.129,-0.289 -0.129,-0.488 v -2.078 h -0.426 v -0.43 h 0.426 z m 3.512,0.879 h 0.586 c -0.074,0.199 -0.242,0.66 -0.496,1.375 -0.192,0.539 -0.352,0.977 -0.481,1.317 -0.304,0.804 -0.519,1.289 -0.644,1.468 -0.125,0.176 -0.34,0.262 -0.645,0.262 l -0.172,-0.008 -0.148,-0.031 v -0.484 c 0.094,0.027 0.16,0.043 0.199,0.047 l 0.11,0.011 c 0.097,0 0.168,-0.015 0.214,-0.047 l 0.118,-0.121 c 0.007,-0.015 0.043,-0.097 0.105,-0.238 0.059,-0.148 0.102,-0.254 0.129,-0.324 l -1.16,-3.227 h 0.597 l 0.844,2.555 0.844,-2.555"
         style="fill:#000000;fill-opacity:1;fill-rule:nonzero;stroke:none"
         id="path592" />
      <path
         d="m 192.73,143.574 h 0.54 v 3.125 h -0.54 z m 0,-1.179 h 0.54 v 0.597 h -0.54 z m 1.332,1.167 h 0.5 v 0.442 c 0.153,-0.18 0.309,-0.313 0.473,-0.395 0.168,-0.078 0.352,-0.117 0.555,-0.117 0.445,0 0.746,0.153 0.902,0.465 0.086,0.168 0.129,0.414 0.129,0.731 v 2.011 h -0.535 v -1.976 c 0,-0.192 -0.027,-0.348 -0.086,-0.465 -0.094,-0.196 -0.266,-0.293 -0.512,-0.293 -0.125,0 -0.226,0.012 -0.304,0.039 -0.145,0.043 -0.274,0.129 -0.383,0.258 -0.086,0.101 -0.145,0.211 -0.172,0.32 -0.024,0.109 -0.039,0.27 -0.039,0.473 v 1.644 h -0.528 z m 3.586,0 0.84,2.555 0.875,-2.555 h 0.575 l -1.18,3.137 h -0.563 l -1.16,-3.137 z m 4.7,0.086 c 0.207,0.102 0.367,0.239 0.476,0.407 0.106,0.156 0.176,0.34 0.211,0.55 0.027,0.145 0.047,0.375 0.047,0.692 h -2.301 c 0.008,0.32 0.086,0.574 0.227,0.769 0.137,0.188 0.355,0.286 0.652,0.286 0.274,0 0.496,-0.09 0.66,-0.27 0.094,-0.105 0.16,-0.23 0.2,-0.367 h 0.515 c -0.012,0.117 -0.058,0.242 -0.133,0.387 -0.078,0.14 -0.164,0.253 -0.261,0.343 -0.161,0.157 -0.36,0.262 -0.594,0.317 -0.125,0.031 -0.27,0.047 -0.43,0.047 -0.39,0 -0.722,-0.141 -0.996,-0.426 -0.269,-0.281 -0.406,-0.68 -0.406,-1.192 0,-0.503 0.137,-0.914 0.41,-1.23 0.273,-0.313 0.633,-0.469 1.074,-0.469 0.223,0 0.438,0.051 0.649,0.156 m 0.191,1.231 c -0.023,-0.227 -0.07,-0.41 -0.148,-0.547 -0.145,-0.254 -0.387,-0.383 -0.727,-0.383 -0.238,0 -0.441,0.09 -0.605,0.262 -0.168,0.176 -0.254,0.398 -0.262,0.668 z m 1.195,-1.317 h 0.5 v 0.54 c 0.043,-0.102 0.145,-0.231 0.301,-0.383 0.16,-0.153 0.348,-0.227 0.555,-0.227 l 0.051,0.004 0.121,0.008 v 0.558 l -0.086,-0.011 -0.086,-0.004 c -0.27,0 -0.473,0.086 -0.613,0.258 -0.145,0.172 -0.215,0.367 -0.215,0.59 v 1.804 h -0.528 z m 2.297,2.153 c 0.016,0.176 0.059,0.308 0.129,0.406 0.137,0.168 0.363,0.254 0.692,0.254 0.199,0 0.367,-0.043 0.515,-0.129 0.149,-0.086 0.223,-0.215 0.223,-0.394 0,-0.133 -0.059,-0.239 -0.176,-0.309 -0.078,-0.043 -0.226,-0.09 -0.453,-0.148 l -0.418,-0.106 c -0.27,-0.066 -0.465,-0.141 -0.594,-0.223 -0.226,-0.144 -0.34,-0.339 -0.34,-0.589 0,-0.297 0.11,-0.539 0.325,-0.723 0.211,-0.184 0.5,-0.274 0.863,-0.274 0.469,0 0.812,0.137 1.019,0.415 0.133,0.175 0.196,0.367 0.192,0.566 h -0.5 c -0.008,-0.117 -0.051,-0.227 -0.125,-0.324 -0.121,-0.137 -0.332,-0.207 -0.629,-0.207 -0.199,0 -0.352,0.039 -0.453,0.113 -0.102,0.078 -0.156,0.18 -0.156,0.305 0,0.136 0.07,0.246 0.203,0.324 0.078,0.051 0.195,0.094 0.347,0.133 l 0.348,0.082 c 0.379,0.093 0.633,0.183 0.762,0.269 0.207,0.133 0.308,0.344 0.308,0.637 0,0.277 -0.105,0.519 -0.316,0.723 -0.215,0.203 -0.535,0.304 -0.969,0.304 -0.469,0 -0.801,-0.109 -0.992,-0.32 -0.195,-0.211 -0.301,-0.473 -0.313,-0.785 z m 2.684,-2.141 h 0.539 v 3.125 h -0.539 z m 0,-1.179 h 0.539 v 0.597 h -0.539 z m 3.297,3.566 c 0.129,-0.262 0.195,-0.559 0.195,-0.883 0,-0.293 -0.047,-0.531 -0.141,-0.715 -0.148,-0.289 -0.406,-0.433 -0.765,-0.433 -0.324,0 -0.559,0.125 -0.703,0.367 -0.149,0.246 -0.223,0.547 -0.223,0.894 0,0.332 0.074,0.614 0.223,0.832 0.144,0.227 0.375,0.336 0.695,0.336 0.348,0 0.59,-0.132 0.719,-0.398 m 0.328,-2.086 c 0.277,0.27 0.418,0.668 0.418,1.187 0,0.508 -0.121,0.926 -0.367,1.254 -0.25,0.332 -0.629,0.496 -1.149,0.496 -0.43,0 -0.773,-0.144 -1.027,-0.437 -0.254,-0.293 -0.379,-0.684 -0.379,-1.176 0,-0.527 0.133,-0.949 0.398,-1.261 0.27,-0.313 0.629,-0.465 1.078,-0.465 0.407,0 0.747,0.132 1.028,0.402 m 1.035,-0.313 h 0.504 v 0.442 c 0.144,-0.18 0.305,-0.313 0.469,-0.395 0.168,-0.078 0.351,-0.117 0.554,-0.117 0.446,0 0.746,0.153 0.903,0.465 0.086,0.168 0.129,0.414 0.129,0.731 v 2.011 h -0.539 v -1.976 c 0,-0.192 -0.028,-0.348 -0.083,-0.465 -0.093,-0.196 -0.261,-0.293 -0.507,-0.293 -0.125,0 -0.231,0.012 -0.309,0.039 -0.144,0.043 -0.273,0.129 -0.383,0.258 -0.086,0.101 -0.144,0.211 -0.172,0.32 -0.027,0.109 -0.039,0.27 -0.039,0.473 v 1.644 h -0.527 v -3.137"
         style="fill:#000000;fill-opacity:1;fill-rule:nonzero;stroke:none"
         id="path594" />
      <path
         d="m 267.938,102 -12,12 -12,-12 12,-12 12,12"
         style="fill:#dae8fc;fill-opacity:1;fill-rule:nonzero;stroke:none"
         id="path596" />
      <g
         id="g598"
         transform="scale(1,-1)">
        <path
           d="m 267.938,-102 -12,-12 -12,12 12,12 z"
           style="fill:none;stroke:#6c8ebf;stroke-width:0.6;stroke-linecap:butt;stroke-linejoin:miter;stroke-miterlimit:10;stroke-dasharray:none;stroke-opacity:1"
           id="path600" />
      </g>
      <path
         d="m 252.594,92.594 v 2.66 c 0,0.316 0.054,0.574 0.176,0.777 0.171,0.317 0.464,0.473 0.875,0.473 0.496,0 0.832,-0.172 1.007,-0.508 0.098,-0.184 0.145,-0.43 0.145,-0.742 v -2.66 h 0.594 v 2.418 c 0,0.527 -0.075,0.937 -0.215,1.222 -0.262,0.52 -0.758,0.778 -1.485,0.778 -0.722,0 -1.218,-0.258 -1.476,-0.778 C 252.07,95.949 252,95.539 252,95.012 v -2.418 z m 3.625,1.168 h 0.504 v 0.441 c 0.144,-0.18 0.304,-0.312 0.468,-0.391 0.168,-0.082 0.352,-0.121 0.555,-0.121 0.445,0 0.746,0.157 0.902,0.465 0.086,0.172 0.129,0.414 0.129,0.731 v 2.011 h -0.535 v -1.976 c 0,-0.192 -0.031,-0.348 -0.086,-0.465 -0.094,-0.195 -0.261,-0.293 -0.511,-0.293 -0.125,0 -0.227,0.016 -0.305,0.039 -0.145,0.043 -0.274,0.129 -0.383,0.258 -0.086,0.105 -0.145,0.211 -0.172,0.32 -0.023,0.11 -0.039,0.27 -0.039,0.473 v 1.644 h -0.527 v -3.136"
         style="fill:#000000;fill-opacity:1;fill-rule:nonzero;stroke:none"
         id="path602" />
      <path
         d="m 249.492,99.793 h 0.582 v 3.793 h 2.184 v 0.512 h -2.766 z m 5.223,3.57 c 0.129,-0.265 0.195,-0.558 0.195,-0.883 0,-0.292 -0.047,-0.531 -0.14,-0.714 -0.149,-0.289 -0.407,-0.434 -0.766,-0.434 -0.324,0 -0.559,0.121 -0.703,0.367 -0.149,0.246 -0.223,0.543 -0.223,0.891 0,0.332 0.074,0.613 0.223,0.836 0.144,0.222 0.379,0.332 0.695,0.332 0.352,0 0.59,-0.133 0.719,-0.395 m 0.328,-2.09 c 0.277,0.27 0.418,0.668 0.418,1.192 0,0.504 -0.121,0.922 -0.367,1.254 -0.246,0.328 -0.629,0.492 -1.149,0.492 -0.429,0 -0.773,-0.145 -1.027,-0.434 -0.254,-0.293 -0.383,-0.687 -0.383,-1.179 0,-0.528 0.137,-0.946 0.403,-1.258 0.269,-0.313 0.624,-0.469 1.078,-0.469 0.406,0 0.746,0.133 1.027,0.402 m 3.109,-0.144 c 0.219,0.172 0.356,0.469 0.399,0.887 h -0.512 c -0.031,-0.192 -0.101,-0.352 -0.215,-0.481 -0.109,-0.129 -0.289,-0.191 -0.535,-0.191 -0.336,0 -0.574,0.16 -0.723,0.488 -0.093,0.215 -0.136,0.477 -0.136,0.789 0,0.317 0.062,0.582 0.199,0.797 0.133,0.211 0.34,0.32 0.625,0.32 0.219,0 0.391,-0.066 0.519,-0.199 0.129,-0.133 0.215,-0.316 0.266,-0.551 h 0.512 c -0.059,0.418 -0.203,0.719 -0.438,0.914 -0.234,0.192 -0.535,0.289 -0.898,0.289 -0.41,0 -0.738,-0.152 -0.985,-0.449 -0.242,-0.301 -0.367,-0.676 -0.367,-1.125 0,-0.551 0.137,-0.98 0.403,-1.285 0.269,-0.309 0.609,-0.461 1.023,-0.461 0.352,0 0.641,0.086 0.863,0.258 m 0.914,-1.336 h 0.508 v 2.5 l 1.356,-1.332 h 0.672 l -1.204,1.176 1.27,1.961 h -0.672 l -0.98,-1.582 -0.442,0.406 v 1.176 h -0.508 v -4.305"
         style="fill:#000000;fill-opacity:1;fill-rule:nonzero;stroke:none"
         id="path604" />
      <path
         d="m 255.629,108.969 c 0.273,0 0.488,-0.055 0.648,-0.164 0.161,-0.11 0.239,-0.309 0.239,-0.594 0,-0.305 -0.114,-0.516 -0.332,-0.629 -0.122,-0.055 -0.282,-0.086 -0.481,-0.086 h -1.422 v 1.473 z m -1.934,-1.973 h 1.996 c 0.329,0 0.598,0.047 0.809,0.145 0.406,0.179 0.605,0.519 0.605,1.015 0,0.258 -0.05,0.469 -0.156,0.633 -0.109,0.164 -0.258,0.293 -0.449,0.395 0.168,0.066 0.297,0.16 0.379,0.269 0.086,0.113 0.137,0.293 0.144,0.543 l 0.02,0.574 c 0.008,0.168 0.019,0.289 0.043,0.368 0.031,0.136 0.098,0.226 0.187,0.265 v 0.094 h -0.714 l -0.047,-0.141 c -0.016,-0.058 -0.024,-0.172 -0.032,-0.34 l -0.035,-0.718 c -0.011,-0.282 -0.117,-0.473 -0.312,-0.567 -0.113,-0.051 -0.285,-0.078 -0.528,-0.078 h -1.324 v 1.844 h -0.586 v -4.301"
         style="fill:#000000;fill-opacity:1;fill-rule:nonzero;stroke:none"
         id="path606" />
    </g>
  </g>
</svg>
