<?xml version="1.0" encoding="UTF-8" standalone="no"?>
<!-- Created with Inkscape (http://www.inkscape.org/) -->

<svg
   version="1.1"
   id="svg148"
   width="647.37061"
   height="469.95621"
   viewBox="0 0 647.37061 469.95621"
   sodipodi:docname="latester.svg"
   inkscape:version="1.2.2 (b0a8486541, 2022-12-01)"
   xmlns:inkscape="http://www.inkscape.org/namespaces/inkscape"
   xmlns:sodipodi="http://sodipodi.sourceforge.net/DTD/sodipodi-0.dtd"
   xmlns="http://www.w3.org/2000/svg"
   xmlns:svg="http://www.w3.org/2000/svg">
  <defs
     id="defs152">
    <clipPath
       clipPathUnits="userSpaceOnUse"
       id="clipPath338">
      <path
         d="M 0,0 H 486 V 353 H 0 Z"
         id="path336" />
    </clipPath>
  </defs>
  <sodipodi:namedview
     id="namedview150"
     pagecolor="#ffffff"
     bordercolor="#000000"
     borderopacity="0.25"
     inkscape:showpageshadow="2"
     inkscape:pageopacity="0.0"
     inkscape:pagecheckerboard="0"
     inkscape:deskcolor="#d1d1d1"
     showgrid="false"
     inkscape:zoom="1.706542"
     inkscape:cx="323.75412"
     inkscape:cy="234.9781"
     inkscape:window-width="1920"
     inkscape:window-height="1011"
     inkscape:window-x="0"
     inkscape:window-y="0"
     inkscape:window-maximized="1"
     inkscape:current-layer="g156">
    <inkscape:page
       x="0"
       y="0"
       id="page154"
       width="647.37061"
       height="469.95621" />
  </sodipodi:namedview>
  <g
     id="g156"
     inkscape:groupmode="layer"
     inkscape:label="Page 1"
     transform="matrix(1.3333333,0,0,1.3333333,0,1.4415572e-5)">
    <g
       id="g158">
      <g
         id="g160">
        <path
           d="m 84.895,258.805 h 237.472 c 8.684,0 15.676,6.992 15.676,15.675 v 61.317 c 0,8.687 -6.992,15.68 -15.676,15.68 H 84.895 c -8.684,0 -15.676,-6.993 -15.676,-15.68 V 274.48 c 0,-8.683 6.992,-15.675 15.676,-15.675 z"
           style="fill:none;stroke:#000000;stroke-width:1.98425;stroke-linecap:round;stroke-linejoin:round;stroke-miterlimit:4;stroke-dasharray:none;stroke-opacity:1"
           id="path162" />
      </g>
      <g
         id="g164">
        <path
           d="M 67.246,211.707 H 179.023"
           style="fill:none;stroke:#000000;stroke-width:1.41732;stroke-linecap:round;stroke-linejoin:miter;stroke-miterlimit:4;stroke-dasharray:none;stroke-opacity:1"
           id="path166" />
      </g>
      <g
         id="g168">
        <path
           d="M 208.688,210.367 H 323.387"
           style="fill:none;stroke:#000000;stroke-width:1.41732;stroke-linecap:round;stroke-linejoin:miter;stroke-miterlimit:4;stroke-dasharray:none;stroke-opacity:1"
           id="path170" />
      </g>
      <g
         id="g172">
        <path
           d="m 445.504,182.219 h 23.355 c 8.684,0 15.676,6.992 15.676,15.679 v 31.805 c 0,8.688 -6.992,15.68 -15.676,15.68 h -23.355 c -8.688,0 -15.68,-6.992 -15.68,-15.68 v -31.805 c 0,-8.687 6.992,-15.679 15.68,-15.679 z"
           style="fill:#ffffff;fill-opacity:1;fill-rule:nonzero;stroke:#000000;stroke-width:1.98425;stroke-linecap:round;stroke-linejoin:round;stroke-miterlimit:4;stroke-dasharray:none;stroke-opacity:1"
           id="path174" />
      </g>
      <g
         id="g176">
        <path
           d="m 249.578,161.938 h 111.203 v 40.984 h 62.418"
           style="fill:none;stroke:#000000;stroke-width:1.41732;stroke-linecap:butt;stroke-linejoin:miter;stroke-miterlimit:4;stroke-dasharray:1.41732, 2.83465;stroke-dashoffset:0;stroke-opacity:1"
           id="path178" />
      </g>
      <g
         id="g180"
         transform="scale(-1)">
        <path
           d="m -246.918,-161.938 -3.984,2.305 v -4.605 z"
           style="fill:#000000;fill-opacity:1;fill-rule:evenodd;stroke:#000000;stroke-width:0.614018;stroke-linecap:butt;stroke-linejoin:miter;stroke-miterlimit:4;stroke-dasharray:none;stroke-opacity:1"
           id="path182" />
      </g>
      <g
         id="g184">
        <path
           d="m 425.855,202.922 -3.984,2.301 v -4.606 z"
           style="fill:#000000;fill-opacity:1;fill-rule:evenodd;stroke:#000000;stroke-width:0.614018;stroke-linecap:butt;stroke-linejoin:miter;stroke-miterlimit:4;stroke-dasharray:none;stroke-opacity:1"
           id="path186" />
      </g>
      <g
         id="g188">
        <path
           d="m 422.387,227.379 h -47.899 v 50.148 h -31.304"
           style="fill:none;stroke:#000000;stroke-width:1.41732;stroke-linecap:butt;stroke-linejoin:miter;stroke-miterlimit:4;stroke-dasharray:1.41732, 2.83465;stroke-dashoffset:0;stroke-opacity:1"
           id="path190" />
      </g>
      <g
         id="g192">
        <path
           d="m 425.043,227.379 -3.984,2.305 v -4.606 z"
           style="fill:#000000;fill-opacity:1;fill-rule:evenodd;stroke:#000000;stroke-width:0.614018;stroke-linecap:butt;stroke-linejoin:miter;stroke-miterlimit:4;stroke-dasharray:none;stroke-opacity:1"
           id="path194" />
      </g>
      <g
         id="g196"
         transform="scale(-1)">
        <path
           d="m -340.527,-277.527 -3.985,2.3 v -4.605 z"
           style="fill:#000000;fill-opacity:1;fill-rule:evenodd;stroke:#000000;stroke-width:0.614018;stroke-linecap:butt;stroke-linejoin:miter;stroke-miterlimit:4;stroke-dasharray:none;stroke-opacity:1"
           id="path198" />
      </g>
      <g
         id="g200">
        <path
           d="M 62.836,275.973 H 0.707 V 89.723 h 186.188 v 25.558"
           style="fill:none;stroke:#000000;stroke-width:1.41732;stroke-linecap:butt;stroke-linejoin:miter;stroke-miterlimit:4;stroke-dasharray:4.25198, 1.41732;stroke-dashoffset:0;stroke-opacity:1"
           id="path202" />
      </g>
      <g
         id="g204">
        <path
           d="m 65.492,275.973 -3.984,2.304 v -4.605 z"
           style="fill:#000000;fill-opacity:1;fill-rule:evenodd;stroke:#000000;stroke-width:0.614018;stroke-linecap:butt;stroke-linejoin:miter;stroke-miterlimit:4;stroke-dasharray:none;stroke-opacity:1"
           id="path206" />
      </g>
      <g
         id="g208"
         transform="rotate(90)">
        <path
           d="m 117.941,-186.895 -3.984,2.301 v -4.605 z"
           style="fill:#000000;fill-opacity:1;fill-rule:evenodd;stroke:#000000;stroke-width:0.614018;stroke-linecap:butt;stroke-linejoin:miter;stroke-miterlimit:4;stroke-dasharray:none;stroke-opacity:1"
           id="path210" />
      </g>
      <g
         id="g212">
        <path
           d="M 457.965,174.926 457.652,89.348 H 186.824 V 47.965"
           style="fill:none;stroke:#000000;stroke-width:1.41732;stroke-linecap:butt;stroke-linejoin:miter;stroke-miterlimit:4;stroke-dasharray:4.25198, 1.41732;stroke-dashoffset:0;stroke-opacity:1"
           id="path214" />
      </g>
      <g
         id="g216"
         transform="matrix(0.0036663,1,-1,0.0036663,0,0)">
        <path
           d="m 179.263,-457.319 -3.985,2.305 0.001,-4.605 z"
           style="fill:#000000;fill-opacity:1;fill-rule:evenodd;stroke:#000000;stroke-width:0.614014;stroke-linecap:butt;stroke-linejoin:miter;stroke-miterlimit:4;stroke-dasharray:none;stroke-opacity:1"
           id="path218" />
      </g>
      <g
         id="g220"
         transform="rotate(-90)">
        <path
           d="m -45.309,186.824 -3.984,2.301 v -4.605 z"
           style="fill:#000000;fill-opacity:1;fill-rule:evenodd;stroke:#000000;stroke-width:0.614018;stroke-linecap:butt;stroke-linejoin:miter;stroke-miterlimit:4;stroke-dasharray:none;stroke-opacity:1"
           id="path222" />
      </g>
      <g
         id="g224">
        <path
           d="m 144.996,0.992 h 78.996 c 8.684,0 15.676,6.992 15.676,15.68 v 10.226 c 0,8.684 -6.992,15.676 -15.676,15.676 h -78.996 c -8.687,0 -15.68,-6.992 -15.68,-15.676 V 16.672 c 0,-8.688 6.993,-15.68 15.68,-15.68 z"
           style="fill:#ffffff;fill-opacity:1;fill-rule:nonzero;stroke:#000000;stroke-width:1.98425;stroke-linecap:round;stroke-linejoin:round;stroke-miterlimit:4;stroke-dasharray:none;stroke-opacity:1"
           id="path226" />
      </g>
      <text
         xml:space="preserve"
         transform="translate(154.90956,26.988506)"
         style="font-variant:normal;font-weight:normal;font-size:18px;font-family:'DejaVu Sans';-inkscape-font-specification:DejaVuSans;writing-mode:lr-tb;fill:#000000;fill-opacity:1;fill-rule:nonzero;stroke:none"
         id="text230"><tspan
           x="0 9.3599997 20.43 27.827999 38.466 49.535999"
           y="0"
           sodipodi:role="line"
           id="tspan228">server</tspan></text>
      <g
         id="g232">
        <path
           d="m 247.391,22.234 h 50.285"
           style="fill:none;stroke:#000000;stroke-width:1.41732;stroke-linecap:butt;stroke-linejoin:miter;stroke-miterlimit:4;stroke-dasharray:4.25198, 1.41732;stroke-dashoffset:0;stroke-opacity:1"
           id="path234" />
      </g>
      <g
         id="g236"
         transform="scale(-1)">
        <path
           d="m -244.73,-22.234 -3.985,2.304 v -4.605 z"
           style="fill:#000000;fill-opacity:1;fill-rule:evenodd;stroke:#000000;stroke-width:0.614018;stroke-linecap:butt;stroke-linejoin:miter;stroke-miterlimit:4;stroke-dasharray:none;stroke-opacity:1"
           id="path238" />
      </g>
      <g
         id="g240">
        <path
           d="m 300.336,22.234 -3.984,2.301 V 19.93 Z"
           style="fill:#000000;fill-opacity:1;fill-rule:evenodd;stroke:#000000;stroke-width:0.614018;stroke-linecap:butt;stroke-linejoin:miter;stroke-miterlimit:4;stroke-dasharray:none;stroke-opacity:1"
           id="path242" />
      </g>
      <text
         xml:space="preserve"
         transform="translate(309.30936,28.216709)"
         style="font-variant:normal;font-weight:normal;font-size:18px;font-family:'DejaVu Sans';-inkscape-font-specification:DejaVuSans;writing-mode:lr-tb;fill:#000000;fill-opacity:1;fill-rule:nonzero;stroke:none"
         id="text250"><tspan
           x="0 4.9860001 16.379999 23.436001 34.506001 41.580002 52.973999 64.043999"
           y="0"
           sodipodi:role="line"
           id="tspan244">internet</tspan><tspan
           x="-97.677879 -86.319885 -79.263885 -67.869881 -56.799881 -49.725883 -38.331882 -27.261883 -20.205881 -14.499882 -4.0598822 8.2521181"
           y="55.871494"
           sodipodi:role="line"
           id="tspan246">Ethernet LAN</tspan><tspan
           x="-29.239416 -19.879416 -8.8094158 -1.4114161 3.574584 14.590584 19.576584 25.282583 40.348583 46.054585 57.466583 68.464584 83.170586 94.240585"
           y="127.44668"
           sodipodi:role="line"
           id="tspan248">serial + power</tspan></text>
      <g
         id="g252">
        <path
           d="m 99.312,240.188 h 23.102 c 8.688,0 15.68,6.992 15.68,15.675 v 8.231 c 0,8.683 -6.992,15.676 -15.68,15.676 H 99.312 c -8.683,0 -15.675,-6.993 -15.675,-15.676 v -8.231 c 0,-8.683 6.992,-15.675 15.675,-15.675 z"
           style="fill:#ffffff;fill-opacity:1;fill-rule:nonzero;stroke:#000000;stroke-width:1.98425;stroke-linecap:round;stroke-linejoin:round;stroke-miterlimit:4;stroke-dasharray:none;stroke-opacity:1"
           id="path254" />
      </g>
      <g
         id="g256">
        <path
           d="m 160.379,239.312 h 23.105 c 8.684,0 15.676,6.993 15.676,15.68 v 8.227 c 0,8.687 -6.992,15.679 -15.676,15.679 h -23.105 c -8.684,0 -15.676,-6.992 -15.676,-15.679 v -8.227 c 0,-8.687 6.992,-15.68 15.676,-15.68 z"
           style="fill:#ffffff;fill-opacity:1;fill-rule:nonzero;stroke:#000000;stroke-width:1.98425;stroke-linecap:round;stroke-linejoin:round;stroke-miterlimit:4;stroke-dasharray:none;stroke-opacity:1"
           id="path258" />
      </g>
      <g
         id="g260">
        <path
           d="m 221.035,238.898 h 23.102 c 8.687,0 15.679,6.993 15.679,15.68 v 8.227 c 0,8.687 -6.992,15.679 -15.679,15.679 h -23.102 c -8.687,0 -15.68,-6.992 -15.68,-15.679 v -8.227 c 0,-8.687 6.993,-15.68 15.68,-15.68 z"
           style="fill:#ffffff;fill-opacity:1;fill-rule:nonzero;stroke:#000000;stroke-width:1.98425;stroke-linecap:round;stroke-linejoin:round;stroke-miterlimit:4;stroke-dasharray:none;stroke-opacity:1"
           id="path262" />
      </g>
      <g
         id="g264">
        <path
           d="m 281.637,239.004 h 23.101 c 8.688,0 15.68,6.992 15.68,15.676 v 8.23 c 0,8.684 -6.992,15.676 -15.68,15.676 h -23.101 c -8.684,0 -15.68,-6.992 -15.68,-15.676 v -8.23 c 0,-8.684 6.996,-15.676 15.68,-15.676 z"
           style="fill:#ffffff;fill-opacity:1;fill-rule:nonzero;stroke:#000000;stroke-width:1.98425;stroke-linecap:round;stroke-linejoin:round;stroke-miterlimit:4;stroke-dasharray:none;stroke-opacity:1"
           id="path266" />
      </g>
      <text
         xml:space="preserve"
         transform="translate(80.100965,307.17575)"
         style="font-variant:normal;font-weight:normal;font-size:18px;font-family:'DejaVu Sans';-inkscape-font-specification:DejaVuSans;writing-mode:lr-tb;fill:#000000;fill-opacity:1;fill-rule:nonzero;stroke:none"
         id="text272"><tspan
           x="0 15.516 27.846001 40.158001 51.012001"
           y="0"
           sodipodi:role="line"
           id="tspan268">MZAPO</tspan><tspan
           x="0 15.516 26.586 37.602001 46.962002 58.355999 65.753998 70.739998 82.134003 93.545998 99.251999 110.664 121.734 132.37199 137.358 147.24001"
           y="22.5"
           sodipodi:role="line"
           id="tspan270">Measuring device</tspan></text>
      <g
         id="g274">
        <path
           d="m 152.812,120.293 h 75.051 c 8.684,0 15.676,6.992 15.676,15.68 v 31.711 c 0,8.687 -6.992,15.679 -15.676,15.679 h -75.051 c -8.683,0 -15.675,-6.992 -15.675,-15.679 v -31.711 c 0,-8.688 6.992,-15.68 15.675,-15.68 z"
           style="fill:none;stroke:#000000;stroke-width:1.98425;stroke-linecap:round;stroke-linejoin:round;stroke-miterlimit:4;stroke-dasharray:none;stroke-opacity:1"
           id="path276" />
      </g>
      <text
         xml:space="preserve"
         transform="translate(145.94011,146.92803)"
         style="font-variant:normal;font-weight:normal;font-size:20px;font-family:'DejaVu Sans';-inkscape-font-specification:DejaVuSans;writing-mode:lr-tb;fill:#000000;fill-opacity:1;fill-rule:nonzero;stroke:none"
         id="text282"><tspan
           x="0 17.240023 30.940041 44.620056 56.680073"
           y="0"
           sodipodi:role="line"
           id="tspan278">MZAPO</tspan><tspan
           x="0 15.40002 30.020039"
           y="25.000032"
           sodipodi:role="line"
           id="tspan280">DUT</tspan></text>
      <g
         id="g284">
        <path
           d="M 109.41,238.238 V 216.191"
           style="fill:none;stroke:#000000;stroke-width:1.98425;stroke-linecap:butt;stroke-linejoin:miter;stroke-miterlimit:4;stroke-dasharray:none;stroke-opacity:1"
           id="path286" />
      </g>
      <g
         id="g288"
         transform="rotate(-90)">
        <path
           d="m -212.473,109.41 -5.574,3.227 v -6.449 z"
           style="fill:#000000;fill-opacity:1;fill-rule:evenodd;stroke:#000000;stroke-width:0.859628;stroke-linecap:butt;stroke-linejoin:miter;stroke-miterlimit:4;stroke-dasharray:none;stroke-opacity:1"
           id="path290" />
      </g>
      <g
         id="g292">
        <path
           d="m 168.477,212.766 v 22.046"
           style="fill:none;stroke:#000000;stroke-width:1.98425;stroke-linecap:butt;stroke-linejoin:miter;stroke-miterlimit:4;stroke-dasharray:none;stroke-opacity:1"
           id="path294" />
      </g>
      <g
         id="g296"
         transform="rotate(90)">
        <path
           d="m 238.531,-168.477 -5.578,3.223 v -6.445 z"
           style="fill:#000000;fill-opacity:1;fill-rule:evenodd;stroke:#000000;stroke-width:0.859628;stroke-linecap:butt;stroke-linejoin:miter;stroke-miterlimit:4;stroke-dasharray:none;stroke-opacity:1"
           id="path298" />
      </g>
      <g
         id="g300">
        <path
           d="M 173.227,210.297 V 188.25"
           style="fill:none;stroke:#000000;stroke-width:1.98425;stroke-linecap:butt;stroke-linejoin:miter;stroke-miterlimit:4;stroke-dasharray:none;stroke-opacity:1"
           id="path302" />
      </g>
      <g
         id="g304"
         transform="rotate(-90)">
        <path
           d="m -184.531,173.227 -5.574,3.222 V 170 Z"
           style="fill:#000000;fill-opacity:1;fill-rule:evenodd;stroke:#000000;stroke-width:0.859628;stroke-linecap:butt;stroke-linejoin:miter;stroke-miterlimit:4;stroke-dasharray:none;stroke-opacity:1"
           id="path306" />
      </g>
      <g
         id="g308">
        <path
           d="M 216.172,184.363 V 206.41"
           style="fill:none;stroke:#000000;stroke-width:1.98425;stroke-linecap:butt;stroke-linejoin:miter;stroke-miterlimit:4;stroke-dasharray:none;stroke-opacity:1"
           id="path310" />
      </g>
      <g
         id="g312"
         transform="rotate(90)">
        <path
           d="m 210.133,-216.172 -5.578,3.223 v -6.446 z"
           style="fill:#000000;fill-opacity:1;fill-rule:evenodd;stroke:#000000;stroke-width:0.859628;stroke-linecap:butt;stroke-linejoin:miter;stroke-miterlimit:4;stroke-dasharray:none;stroke-opacity:1"
           id="path314" />
      </g>
      <g
         id="g316">
        <path
           d="m 232.219,211.574 v 22.047"
           style="fill:none;stroke:#000000;stroke-width:1.98425;stroke-linecap:butt;stroke-linejoin:miter;stroke-miterlimit:4;stroke-dasharray:none;stroke-opacity:1"
           id="path318" />
      </g>
      <g
         id="g320"
         transform="rotate(90)">
        <path
           d="m 237.34,-232.219 -5.578,3.223 v -6.445 z"
           style="fill:#000000;fill-opacity:1;fill-rule:evenodd;stroke:#000000;stroke-width:0.859628;stroke-linecap:butt;stroke-linejoin:miter;stroke-miterlimit:4;stroke-dasharray:none;stroke-opacity:1"
           id="path322" />
      </g>
      <text
         xml:space="preserve"
         transform="translate(64.474916,207.06224)"
         style="font-variant:normal;font-weight:normal;font-size:18px;font-family:'DejaVu Sans';-inkscape-font-specification:DejaVuSans;writing-mode:lr-tb;fill:#000000;fill-opacity:1;fill-rule:nonzero;stroke:none"
         id="text330"><tspan
           x="0 12.564 24.875999 38.34 44.046001 55.458 66.851997 76.211998 81.917999"
           y="0"
           sodipodi:role="line"
           id="tspan324">CAN bus A</tspan><tspan
           x="170.68115 183.24515 195.55714 209.02115 214.72714 226.13914 237.53314 246.89314 252.59915"
           y="-0.55245239"
           sodipodi:role="line"
           id="tspan326">CAN bus B</tspan><tspan
           x="380.92529 391.90527"
           y="12.011872"
           sodipodi:role="line"
           id="tspan328">TB</tspan></text>
      <g
         id="g332">
        <g
           id="g334" />
        <g
           id="g348">
          <g
             clip-path="url(#clipPath338)"
             opacity="0.915263"
             id="g346">
            <g
               id="g344">
              <g
                 id="g342">
                <path
                   d="m 189.742,89.309 c 0,1.711 -1.316,3.097 -2.937,3.097 -1.621,0 -2.938,-1.386 -2.938,-3.097 0,-1.711 1.317,-3.098 2.938,-3.098 1.621,0 2.937,1.387 2.937,3.098 z"
                   style="fill:#000000;fill-opacity:1;fill-rule:nonzero;stroke:#000000;stroke-width:1.5;stroke-linecap:butt;stroke-linejoin:miter;stroke-miterlimit:4;stroke-dasharray:none;stroke-opacity:1"
                   id="path340" />
              </g>
            </g>
          </g>
        </g>
      </g>
      <text
         xml:space="preserve"
         transform="translate(92.237208,264.90512)"
         style="font-variant:normal;font-weight:normal;font-size:16px;font-family:'DejaVu Sans';-inkscape-font-specification:DejaVuSans;writing-mode:lr-tb;fill:#000000;fill-opacity:1;fill-rule:nonzero;stroke:none"
         id="text358"><tspan
           x="0 8.7839861 18.575972 28.703955"
           y="0"
           sodipodi:role="line"
           id="tspan350">can0</tspan><tspan
           x="61.318817 70.102806 79.894791 90.022774"
           y="-0.074958764"
           sodipodi:role="line"
           id="tspan352">can1</tspan><tspan
           x="121.23845 130.02243 139.81442 149.94241"
           y="-0.63333869"
           sodipodi:role="line"
           id="tspan354">can2</tspan><tspan
           x="183.14101 191.925 201.71698 211.84497"
           y="-0.56394166"
           sodipodi:role="line"
           id="tspan356">can3</tspan></text>
    </g>
  </g>
</svg>
