<!-- Created with Inkscape (http://www.inkscape.org/) -->
<svg width="481.7" height="247.93" version="1.1" viewBox="0 0 481.7 247.93" xmlns="http://www.w3.org/2000/svg">
 <g transform="matrix(1.3333 0 0 -1.3333 -208.16 843.31)">
  <g>
   <path transform="translate(119.99 427.94)" d="m397.4 111.57c0-51.348-80.875-92.973-180.64-92.973-99.766 0-180.64 41.625-180.64 92.973 0 51.347 80.871 92.976 180.64 92.976 99.761 0 180.64-41.629 180.64-92.976z" fill="#007d24"/>
   <path transform="translate(119.99 427.94)" d="m376.62 111.71c0-44.691-71.535-80.922-159.77-80.922-88.239 0-159.77 36.231-159.77 80.922 0 44.688 71.531 80.918 159.77 80.918 88.238 0 159.77-36.23 159.77-80.918z" fill="#fff"/>
   <g fill="#bd0600">
    <path transform="translate(119.99 427.94)" d="m144.17 112.01h5.078c2.547 0 4.203-1.297 3.812-4.031-0.39-2.688-2.312-3.656-5.687-3.656h-4.297zm0.984-16.203c5.094 0 5.594-1.656 4.86-6.719-0.485-3.437-0.563-5.922-0.407-6.781h11.047l0.172 1.187c-1.297 0-0.906 1.719-0.187 6.782 1.125 7.797-0.86 8.765-4.157 10.281 4.047 1.234 6.313 5 6.954 9.469 1.078 7.531-2.079 11.031-13.172 11.031h-15.719l-5.563-38.75h10.922l1.938 13.5z"/>
    <path transform="translate(119.99 427.94)" d="m165.56 110.88h9.797l-4.109-28.578h10.906l4.11 28.578h9.796l1.454 10.172h-30.5z"/>
    <path transform="translate(119.99 427.94)" d="m223.44 82.304 1.297 9.047h-16.875l0.875 6.078h13.719l1.297 9.031h-13.719l0.797 5.547h16.219l1.297 9.047h-27.125l-5.563-38.75z"/>
    <path transform="translate(119.99 427.94)" d="m236.86 82.304 1.891 13.125 0.625 6.031 0.359 5.703h0.094l2.484-24.859h7.579l9.625 24.859h0.093l-1.562-7-1-6.015-1.703-11.844h9.797l5.562 38.75h-13.172l-9.343-24.172-2.391 24.172h-13.188l-5.562-38.75z"/>
    <path transform="translate(119.99 427.94)" d="m301.49 109.8c0.188 6.781-3.234 12.266-12.468 12.266-8.329 0-15.016-4.141-16.204-12.375-2.125-14.797 17.594-10.766 16.75-16.625-0.265-1.829-2.218-2.86-4.937-2.86-1.063 0-2.172 0.328-2.969 0.969-0.828 0.656-1.328 1.672-1.359 3.078h-10.438c-0.781-7 4.094-12.969 12.875-12.969 9.157 0 16.203 4.36 17.485 13.344 2.031 14.094-17.625 10.484-16.797 16.297 0.203 1.406 1.39 2.203 3.797 2.203 1.062 0 2-0.203 2.718-0.687 0.719-0.485 1.188-1.297 1.188-2.641z"/>
   </g>
   <g fill="#000500">
    <path transform="translate(119.99 427.94)" d="m118.12 137.57 0.75 5.329h-9.844l0.5 3.578h8.016l0.734 5.312h-8.015l0.453 3.266h9.469l0.75 5.312h-15.829l-3.187-22.797z"/>
    <path transform="translate(119.99 427.94)" d="m120.57 137.57h5.594l1.141 8.204c0.281 2 0.843 3.671 2.484 3.671 1.484 0 1.75-0.984 1.422-3.421l-1.188-8.454h5.61l1.14 8.204c0.282 2 0.844 3.671 2.485 3.671 1.484 0 1.75-0.984 1.422-3.421l-1.188-8.454h5.594l1.375 9.813c0.625 4.531-0.266 7.266-4.391 7.266-2.078 0-3.828-1.047-5.328-3.047-0.422 1.765-1.625 3.047-4.172 3.047-2.015 0-4-1.688-4.89-2.954l0.343 2.469h-5.14z"/>
    <path transform="translate(119.99 427.94)" d="m156.41 160.37h-5.609l-3.188-22.797h5.032l0.328 2.344h0.062c0.485-1.578 1.594-2.812 3.953-2.812 4.61 0 6.922 3.953 7.61 8.859 0.703 5-1.313 8.688-4.922 8.688-1.672 0-3.063-0.641-4.375-2.157zm-0.359-18.515c-1.844 0-2.063 2.25-1.813 4.015 0.25 1.719 1.188 3.672 2.891 3.672 1.797 0 2.094-2.031 1.844-3.797-0.25-1.812-1.094-3.89-2.922-3.89z"/>
    <path transform="translate(119.99 427.94)" d="m172.18 147.74c0.25 1.766 1.359 2.875 3.031 2.875 1.312 0 2.265-1.359 2.062-2.875zm10.234-3.359c0.922 6.016-1.641 10.266-6.859 10.266-4.532 0-8.516-3.485-9.266-8.938-0.781-5.578 2.312-8.609 6.844-8.609 3.281 0 7.031 1.359 8.578 5.468h-5.36c-0.546-0.984-1.421-1.453-2.312-1.453-1.484 0-2.609 1.297-2.328 3.266z"/>
    <path transform="translate(119.99 427.94)" d="m199.02 137.57 3.187 22.797h-5.609l-1.11-7.875c-0.953 1.641-2.109 2.157-3.89 2.157-3.375 0-6.485-3.594-7.266-9.094-0.656-4.688 0.984-8.453 5.234-8.453 1.813 0 3.125 0.656 4.719 2.687l-0.312-2.219zm-7.391 4.282c-1.828 0-1.922 2.015-1.672 3.765 0.25 1.828 1.063 3.922 2.922 3.922s2.109-1.984 1.859-3.828c-0.281-1.937-1.172-3.859-3.109-3.859z"/>
    <path transform="translate(119.99 427.94)" d="m217.03 137.57 3.188 22.797h-5.61l-1.109-7.875c-0.953 1.641-2.109 2.157-3.891 2.157-3.375 0-6.484-3.594-7.265-9.094-0.656-4.688 0.984-8.453 5.234-8.453 1.813 0 3.125 0.656 4.719 2.687l-0.313-2.219zm-7.39 4.282c-1.828 0-1.922 2.015-1.672 3.765 0.25 1.828 1.062 3.922 2.922 3.922 1.859 0 2.109-1.984 1.859-3.828-0.281-1.937-1.172-3.859-3.109-3.859z"/>
    <path transform="translate(119.99 427.94)" d="m226.21 147.74c0.25 1.766 1.359 2.875 3.031 2.875 1.313 0 2.266-1.359 2.063-2.875zm10.234-3.359c0.922 6.016-1.64 10.266-6.859 10.266-4.531 0-8.516-3.485-9.266-8.938-0.781-5.578 2.313-8.609 6.844-8.609 3.281 0 7.031 1.359 8.578 5.468h-5.359c-0.547-0.984-1.422-1.453-2.313-1.453-1.484 0-2.609 1.297-2.328 3.266z"/>
    <path transform="translate(119.99 427.94)" d="m253.04 137.57 3.187 22.797h-5.609l-1.109-7.875c-0.953 1.641-2.11 2.157-3.891 2.157-3.375 0-6.484-3.594-7.266-9.094-0.656-4.688 0.985-8.453 5.235-8.453 1.812 0 3.125 0.656 4.719 2.687l-0.313-2.219zm-7.391 4.282c-1.828 0-1.922 2.015-1.672 3.765 0.25 1.828 1.063 3.922 2.922 3.922 1.86 0 2.11-1.984 1.86-3.828-0.282-1.937-1.172-3.859-3.11-3.859z"/>
    <path transform="translate(119.99 427.94)" d="m282.65 160.37h-5.265l-4.282-14.093h-0.046l-0.219 14.093h-6.141l1.625-22.797h6.266l4.047 13.235h0.062l0.391-13.235h6.25l8.015 22.797h-6.156l-4.14-14.093h-0.063z"/>
    <path transform="translate(119.99 427.94)" d="m297.61 137.57 2.313 16.594h-5.61l-2.312-16.594zm-3 18.719h5.61l0.656 4.688h-5.609z"/>
    <path transform="translate(119.99 427.94)" d="m310.61 142.29h-0.89c-1.563 0-1.672 0.531-1.453 2.063l0.828 6.015h2.687l0.531 3.797h-2.687l0.734 5.172h-5.531l-0.734-5.172h-2.078l-0.532-3.797h2l-0.968-6.937c-0.797-5.735 0.015-6.328 7.437-5.86z"/>
    <path transform="translate(119.99 427.94)" d="m312.58 137.57h5.609l1.188 8.454c0.297 2.125 0.922 3.421 2.641 3.421 1.593 0 1.765-1.453 1.531-3.109l-1.219-8.766h5.609l1.391 9.938c0.641 4.562-0.75 7.141-4.469 7.141-1.89 0-3.281-0.891-4.64-2.579l1.156 8.297h-5.609z"/>
   </g>
   <g>
    <path transform="translate(119.99 427.94)" d="m149.47 55.347h3.64c1.328 3.328 2.766 6.594 4.157 9.875h-3.563l-2.047-6.016h-0.047l-1.453 6.016h-3.672l-2.031-6.016h-0.047l-1.578 6.016h-3.578c1.187-3.266 2.203-6.563 3.25-9.875h3.531c0.703 1.937 1.438 3.859 2.016 5.797h0.047z"/>
    <path transform="translate(119.99 427.94)" d="m167.43 55.347h3.64c1.328 3.328 2.766 6.594 4.157 9.875h-3.563l-2.047-6.016h-0.047l-1.453 6.016h-3.672l-2.031-6.016h-0.047l-1.578 6.016h-3.578c1.187-3.266 2.203-6.563 3.25-9.875h3.531c0.703 1.937 1.438 3.859 2.016 5.797h0.047z"/>
    <path transform="translate(119.99 427.94)" d="m185.39 55.347h3.64c1.328 3.328 2.766 6.594 4.157 9.875h-3.563l-2.047-6.016h-0.047l-1.453 6.016h-3.672l-2.031-6.016h-0.047l-1.578 6.016h-3.578c1.187-3.266 2.203-6.563 3.25-9.875h3.531c0.703 1.937 1.438 3.859 2.016 5.797h0.047z"/>
    <path transform="translate(119.99 427.94)" d="m196.28 55.347 0.172 3.437h-3.64l-0.125-3.437z"/>
    <path transform="translate(119.99 427.94)" d="m202.96 65.222h-3.641c0-4.438-0.172-7.156-0.39-9.875h3.796c0 2.437 0.016 4.14 0.25 5.14 0.282 1.157 1.141 1.891 2.329 1.891 0.343 0 0.687-0.109 1.031-0.203l-0.125 3.187c-0.25 0.079-0.531 0.094-0.781 0.094-0.969 0-1.844-0.547-2.469-1.265l-0.031-0.032z"/>
    <path transform="translate(119.99 427.94)" d="m214.51 62.628 0.078 2.594h-2.203l0.109 2.594-3.594-0.813-0.109-1.781h-1.594l-0.109-2.594h1.484c-0.062-1.766-0.281-3.328-0.281-4.891 0-2.109 1.266-2.625 3.156-2.625 0.86 0 1.735 0.094 2.578 0.313l0.485 2.734c-0.453-0.125-0.907-0.218-1.375-0.218-0.828 0-0.985 0.609-0.985 1.359 0 1.312 0.078 2.219 0.141 3.328z"/>
    <path transform="translate(119.99 427.94)" d="m226.12 59.706c0.094 0.485 0.141 0.985 0.141 1.485 0 2.75-1.782 4.265-5 4.265-5.235 0-5.657-4.453-5.657-5.5 0-3.89 2.735-4.844 5.875-4.844 1.141 0 2.297 0.141 3.422 0.375l0.469 2.766c-1.094-0.312-2.281-0.656-3.437-0.656-1.297 0-2.579 0.562-2.579 2.109zm-6.656 1.797c0.093 0.859 0.687 1.75 1.75 1.75 0.953 0 1.422-0.594 1.422-1.75z"/>
    <path transform="translate(119.99 427.94)" d="m231.63 65.222h-3.609c-0.047-3.297-0.25-6.594-0.438-9.875h3.844c0.047 1.734 0 3.547 0.25 5.265 0.109 0.829 0.39 1.954 1.422 1.954 0.828 0 1-0.704 1-1.407 0-0.375-0.219-4.531-0.36-5.812h3.844c0.094 1.797 0 3.64 0.281 5.422 0.11 0.797 0.453 1.797 1.407 1.797 0.875 0 0.984-0.766 0.984-1.485 0-1.047-0.234-4.859-0.313-5.734h3.829c0.078 3.172 0.343 6.922 0.343 7.437 0 1.953-1.468 2.672-3.218 2.672-1.344 0-2.485-0.375-3.235-1.562-0.594 1.187-1.672 1.562-2.937 1.562-1.313 0-2.391-0.422-3.11-1.453l-0.031-0.047z"/>
    <path transform="translate(119.99 427.94)" d="m253.88 65.128c-1.125 0.172-2.266 0.328-3.391 0.328-2.781 0-3.968-1.156-3.968-2.797 0-2.328 3.422-3.437 3.422-4.359 0-0.578-0.844-0.594-1.282-0.594-0.968 0-1.953 0.36-2.859 0.703l0.297-2.859c1.14-0.25 2.312-0.438 3.484-0.438 1.75 0 4.219 0.672 4.219 2.844 0 2.563-3.422 3.344-3.422 4.422 0 0.484 0.875 0.484 1.359 0.484 0.86 0 1.61-0.171 2.297-0.453z"/>
    <path transform="translate(119.99 427.94)" d="m259.76 55.347 0.172 3.437h-3.641l-0.125-3.437z"/>
    <path transform="translate(119.99 427.94)" d="m268.09 65.456c-3.297 0-5.953-1.906-5.953-5.39 0-1.547 0.89-4.954 5.765-4.954 3.313 0 5.86 1.86 5.86 5.36 0 3.328-2.61 4.984-5.672 4.984zm-0.031-2.765c1.281 0 1.843-1.016 1.843-2.172 0-1.25-0.578-2.641-2.047-2.641-1.312 0-1.859 1.094-1.859 2.219 0 1.281 0.609 2.594 2.063 2.594z"/>
    <path transform="translate(119.99 427.94)" d="m279.25 65.222h-3.641c0-4.438-0.172-7.156-0.39-9.875h3.797c0 2.437 0.015 4.14 0.25 5.14 0.281 1.157 1.14 1.891 2.328 1.891 0.343 0 0.687-0.109 1.031-0.203l-0.125 3.187c-0.25 0.079-0.531 0.094-0.781 0.094-0.969 0-1.844-0.547-2.469-1.265l-0.031-0.032z"/>
    <path transform="translate(119.99 427.94)" d="m284.07 51.284c1.641-0.39 3.329-0.625 5-0.625 3.469 0 4.766 1.485 4.829 3.813 0.078 3.625 0.218 7.031 0.515 10.453-1.578 0.297-3.172 0.531-4.797 0.531-4.562 0-6.75-2.469-6.75-5.812 0-2.453 1.563-4.391 4.094-4.391 1.328 0 2.328 0.438 3.266 1.344-0.016-1.844-0.235-3.25-2.453-3.25-1.313 0-2.625 0.344-3.86 0.765zm6.454 11.25c-0.032-1.75-0.079-4.593-2.266-4.593-1.078 0-1.641 0.937-1.641 1.921 0 1.719 1.157 2.766 2.844 2.766 0.359 0 0.719-0.031 1.063-0.094z"/>
   </g>
   <path transform="translate(119.99 427.94)" d="m307 116.6h-0.312c-0.547 0-0.594 0.187-0.563 0.672l0.172 1.937h0.937l0.11 1.235h-0.938l0.141 1.656h-1.922l-0.141-1.656h-0.734l-0.109-1.235h0.703l-0.188-2.234c-0.172-1.844 0.125-2.047 2.703-1.891z" fill="#bd0600"/>
   <path transform="translate(119.99 427.94)" d="m307.74 115.08h1.953l0.235 2.641c0.062 0.656 0.219 1.187 0.797 1.187 0.515 0 0.625-0.312 0.547-1.093l-0.235-2.735h1.953l0.235 2.641c0.062 0.656 0.218 1.187 0.797 1.187 0.515 0 0.625-0.312 0.546-1.093l-0.234-2.735h1.953l0.281 3.172c0.125 1.453-0.25 2.344-1.687 2.344-0.719 0-1.313-0.344-1.797-0.985-0.172 0.563-0.625 0.985-1.5 0.985-0.703 0-1.375-0.547-1.641-0.953l0.063 0.797h-1.797z" fill="#bd0600"/>
  </g>
 </g>
</svg>
